<?xml version="1.0" encoding="iso-8859-1"?>
<!-- Uploaded to: SVG Repo, www.svgrepo.com, Generator: SVG Repo Mixer Tools -->
<svg fill="#000000" height="800px" width="800px" version="1.1" id="Layer_1" xmlns="http://www.w3.org/2000/svg" xmlns:xlink="http://www.w3.org/1999/xlink" 
	 viewBox="0 0 512 512" xml:space="preserve">
<g>
	<g>
		<path d="M402.219,0H109.781C84.544,0,64,19.157,64,42.731v426.539C64,492.821,84.544,512,109.781,512h292.437
			C427.456,512,448,492.821,448,469.269V42.731C448,19.157,427.456,0,402.219,0z M206.784,262.315
			c8.32,8.363,8.256,21.867-0.107,30.165c-4.16,4.117-9.6,6.187-15.04,6.187c-5.483,0-10.965-2.112-15.147-6.315l-42.304-42.667
			c-8.256-8.32-8.256-21.739,0-30.037l42.304-42.667c8.299-8.384,21.803-8.427,30.187-0.128c8.363,8.299,8.427,21.803,0.107,30.165
			l-27.413,27.648L206.784,262.315z M256,448c-11.776,0-21.333-9.557-21.333-21.333s9.557-21.333,21.333-21.333
			s21.333,9.557,21.333,21.333S267.776,448,256,448z M377.813,249.685l-42.304,42.667c-4.181,4.203-9.664,6.315-15.147,6.315
			c-5.44,0-10.88-2.069-15.019-6.187c-8.384-8.299-8.427-21.803-0.128-30.165l27.413-27.648l-27.413-27.648
			c-8.299-8.363-8.256-21.867,0.128-30.165c8.363-8.299,21.888-8.235,30.165,0.128l42.304,42.667
			C386.069,227.947,386.069,241.365,377.813,249.685z"/>
	</g>
</g>
</svg>